<?xml version="1.0" standalone="no"?>
<!DOCTYPE svg PUBLIC "-//W3C//DTD SVG 20010904//EN"
 "http://www.w3.org/TR/2001/REC-SVG-20010904/DTD/svg10.dtd">
<svg version="1.0" xmlns="http://www.w3.org/2000/svg"
 width="560.000000pt" height="345.000000pt" viewBox="0 0 560.000000 345.000000"
 preserveAspectRatio="xMidYMid meet">

<g transform="translate(0.000000,345.000000) scale(0.100000,-0.100000)"
fill="#2563eb" stroke="none">
<path d="M2550 3414 c-242 -30 -373 -60 -566 -130 -397 -143 -691 -320 -1098
-657 -235 -195 -344 -297 -613 -571 -234 -239 -273 -282 -273 -308 0 -25 35
-66 238 -274 438 -451 841 -796 1133 -969 156 -93 405 -214 541 -263 492 -179
981 -208 1460 -87 640 163 1201 544 1971 1339 130 135 237 250 237 255 0 18
-592 606 -745 740 -610 537 -1100 798 -1685 901 -97 17 -174 23 -345 25 -121
2 -236 1 -255 -1z m545 -273 c504 -88 971 -331 1490 -777 162 -140 637 -602
633 -616 -9 -25 -391 -407 -526 -526 -389 -340 -642 -517 -954 -667 -161 -76
-273 -117 -434 -155 -350 -84 -599 -89 -960 -19 -213 41 -342 86 -559 193
-394 195 -741 463 -1235 954 l-225 224 205 201 c814 800 1371 1124 2080 1211
85 10 370 -3 485 -23z"/>
<path d="M2525 2816 c-239 -39 -472 -129 -750 -287 -168 -95 -275 -171 -432
-304 -133 -114 -493 -462 -493 -478 0 -6 64 -75 142 -155 149 -150 355 -333
495 -440 291 -221 630 -386 935 -454 93 -21 127 -23 358 -23 244 1 260 2 374
29 171 40 300 87 471 171 237 116 401 225 606 401 97 83 461 445 468 465 5 16
-298 318 -454 453 -235 203 -356 286 -584 400 -209 105 -371 164 -570 207
-123 27 -444 35 -566 15z m435 -251 c132 -22 267 -59 391 -110 339 -139 570
-296 902 -614 l98 -95 -128 -129 c-380 -383 -782 -605 -1243 -688 -210 -38
-436 -15 -692 71 -201 68 -514 243 -703 394 -101 81 -375 338 -375 352 0 13
220 216 360 334 293 244 741 454 1055 493 77 10 249 5 335 -8z"/>
<path d="M2715 2213 c-136 -18 -269 -105 -346 -224 -133 -208 -68 -505 142
-640 152 -97 386 -97 539 1 158 102 243 319 195 499 -63 238 -293 396 -530
364z"/>
</g>
</svg>
