<?xml version="1.0" standalone="no"?>
<!DOCTYPE svg PUBLIC "-//W3C//DTD SVG 20010904//EN"
 "http://www.w3.org/TR/2001/REC-SVG-20010904/DTD/svg10.dtd">
<svg version="1.0" xmlns="http://www.w3.org/2000/svg"
 width="791.000000pt" height="542.000000pt" viewBox="0 0 791.000000 542.000000"
 preserveAspectRatio="xMidYMid meet">

<g transform="translate(0.000000,542.000000) scale(0.100000,-0.100000)"
fill="#2563eb" stroke="none">
<path d="M3630 5345 c-221 -28 -462 -100 -720 -215 -335 -149 -604 -334 -1056
-726 -139 -121 -714 -697 -714 -716 0 -16 493 -516 651 -660 302 -277 541
-465 739 -583 872 -518 1729 -561 2582 -129 421 214 842 552 1391 1117 130
135 237 250 237 256 0 18 -588 603 -745 740 -609 536 -1098 798 -1685 901
-163 29 -508 36 -680 15z m625 -265 c502 -86 970 -329 1490 -776 161 -139 637
-602 633 -616 -2 -5 -86 -94 -186 -198 -334 -346 -743 -683 -1044 -862 -235
-139 -472 -239 -678 -288 -363 -85 -608 -90 -965 -19 -219 43 -350 89 -563
194 -392 196 -743 467 -1232 953 l-225 224 205 202 c814 799 1375 1126 2080
1210 84 10 370 -4 485 -24z"/>
<path d="M3685 4756 c-190 -32 -371 -93 -570 -191 -253 -125 -415 -232 -620
-407 -135 -115 -485 -456 -485 -471 0 -31 414 -421 605 -570 302 -235 651
-408 967 -479 93 -21 128 -23 353 -23 226 0 260 2 355 23 173 39 336 98 505
182 230 114 396 224 596 396 97 84 461 445 468 466 9 28 -467 476 -667 627
-255 192 -634 367 -937 431 -129 28 -448 36 -570 16z m517 -265 c332 -72 685
-252 987 -506 47 -40 139 -124 205 -186 l118 -114 -153 -150 c-206 -201 -372
-327 -589 -447 -316 -175 -718 -268 -991 -229 -116 17 -293 64 -413 112 -194
77 -450 226 -621 363 -100 81 -375 338 -375 352 0 13 220 216 360 334 263 220
704 436 980 480 41 6 82 13 90 15 45 11 314 -5 402 -24z"/>
<path d="M3875 4153 c-136 -18 -269 -105 -346 -224 -132 -206 -67 -506 138
-637 159 -101 388 -102 543 -2 158 102 243 319 195 499 -63 238 -293 396 -530
364z"/>
<path d="M3745 1336 c-61 -27 -85 -83 -61 -140 26 -62 100 -89 184 -66 105 28
108 163 5 206 -40 17 -89 17 -128 0z"/>
<path d="M334 1311 c-170 -48 -277 -179 -278 -336 0 -94 20 -149 77 -211 64
-70 148 -110 332 -158 232 -60 283 -97 272 -194 -6 -53 -50 -104 -113 -128
-61 -23 -184 -16 -246 14 -52 26 -106 89 -115 136 l-6 29 -81 -7 c-45 -3 -98
-9 -119 -12 -36 -6 -38 -8 -32 -38 11 -56 65 -155 109 -199 99 -99 233 -142
416 -134 132 6 205 27 286 82 98 67 144 161 144 290 0 90 -21 152 -70 208 -58
65 -139 103 -318 148 -243 62 -295 93 -295 179 0 91 83 154 202 154 47 0 78
-6 107 -22 47 -24 101 -81 110 -117 5 -19 13 -25 33 -25 35 0 202 28 209 35 3
3 -2 30 -12 60 -34 108 -140 207 -265 245 -83 26 -258 27 -347 1z"/>
<path d="M7210 1316 c-111 -31 -221 -119 -261 -209 -19 -42 -24 -69 -24 -142
0 -81 3 -96 30 -145 37 -67 113 -130 192 -160 32 -12 125 -39 207 -61 205 -54
246 -82 246 -168 0 -97 -87 -161 -219 -161 -124 0 -199 46 -246 149 l-19 44
-91 -7 c-135 -10 -138 -12 -130 -55 11 -64 62 -156 115 -205 56 -53 145 -97
231 -116 82 -18 268 -8 341 18 120 43 209 125 243 223 23 63 19 203 -6 259
-52 116 -143 169 -397 232 -212 52 -257 81 -257 168 0 61 25 97 90 129 119 60
270 13 320 -100 11 -23 25 -39 35 -39 27 0 212 29 217 34 3 3 -2 27 -11 54
-41 122 -153 221 -291 258 -62 17 -254 17 -315 0z"/>
<path d="M6060 705 l0 -616 118 3 117 3 -1 610 -2 610 -116 3 -116 3 0 -616z"/>
<path d="M6510 705 l0 -615 115 0 115 0 0 615 0 615 -115 0 -115 0 0 -615z"/>
<path d="M3106 1158 c-3 -46 -7 -99 -9 -118 l-2 -35 -62 -3 -63 -3 0 -89 0
-90 65 0 65 0 0 -258 c0 -288 7 -336 61 -397 67 -76 204 -112 328 -85 86 18
84 15 74 111 l-8 84 -75 -3 c-65 -3 -79 -1 -102 18 -15 11 -32 38 -38 58 -5
20 -10 135 -10 254 l0 217 113 3 112 3 -2 85 -1 85 -109 3 -110 3 1 117 1 117
-112 3 -111 3 -6 -83z"/>
<path d="M1390 1006 c-68 -19 -127 -53 -177 -99 -57 -52 -86 -98 -114 -179
-30 -84 -32 -263 -5 -353 59 -198 239 -317 456 -302 105 7 179 38 249 102 59
55 131 170 115 185 -5 4 -55 10 -111 14 l-103 6 -25 -40 c-61 -96 -177 -115
-272 -44 -36 27 -93 134 -93 176 l0 28 310 0 310 0 0 66 c0 203 -97 363 -257
424 -72 28 -216 36 -283 16z m207 -185 c47 -22 78 -71 89 -140 l7 -41 -192 0
c-175 0 -191 1 -191 18 0 25 44 114 66 134 55 49 150 61 221 29z"/>
<path d="M2430 1001 c-40 -14 -68 -34 -102 -70 l-47 -51 -3 57 -3 58 -107 3
-108 3 0 -456 0 -455 109 0 109 0 4 293 c4 326 9 349 74 406 55 49 154 54 214
11 61 -43 65 -65 70 -400 l5 -305 115 0 115 0 0 320 c-1 356 -6 389 -67 481
-69 103 -245 152 -378 105z"/>
<path d="M4497 1004 c-32 -10 -65 -32 -99 -64 -29 -28 -53 -50 -55 -50 -2 0
-3 25 -3 55 l0 55 -110 0 -110 0 2 -452 3 -453 110 0 110 0 5 300 5 300 28 48
c37 63 91 91 164 85 86 -7 136 -55 153 -147 5 -29 10 -175 10 -323 l0 -269
113 3 112 3 0 320 c0 285 -2 328 -19 390 -17 59 -28 78 -71 122 -42 41 -65 55
-120 72 -78 24 -159 26 -228 5z"/>
<path d="M5383 1005 c-151 -42 -259 -152 -298 -300 -19 -76 -20 -243 0 -318
41 -156 145 -261 300 -302 202 -52 414 35 501 206 35 71 33 79 -25 79 -26 0
-75 3 -107 6 l-59 6 -32 -45 c-108 -155 -320 -80 -358 125 l-7 38 313 2 314 3
-2 75 c-3 94 -18 159 -54 231 -36 73 -122 151 -197 179 -74 29 -215 36 -289
15z m224 -191 c30 -22 67 -89 78 -141 l7 -33 -196 0 -196 0 6 28 c17 71 63
133 118 158 45 20 148 14 183 -12z"/>
<path d="M3699 996 c-2 -2 -3 -207 -1 -455 l2 -451 115 0 115 0 0 455 0 455
-113 0 c-63 0 -116 -2 -118 -4z"/>
</g>
</svg>
